<svg width="48" height="49" viewBox="0 0 48 49" fill="none" xmlns="http://www.w3.org/2000/svg">
<path d="M20.2201 22.8H14.9201C13.6601 22.8 12.6401 23.82 12.6401 25.08V35.3199H20.2201V22.8V22.8Z" stroke="#474747" stroke-width="1.5" stroke-miterlimit="10" stroke-linecap="round" stroke-linejoin="round"/>
<path d="M25.5226 13.7H22.4826C21.2226 13.7 20.2026 14.72 20.2026 15.98V35.3H27.7827V15.98C27.7827 14.72 26.7826 13.7 25.5226 13.7Z" stroke="#474747" stroke-width="1.5" stroke-miterlimit="10" stroke-linecap="round" stroke-linejoin="round"/>
<path d="M33.0964 26.2H27.7964V35.3H35.3764V28.48C35.3564 27.22 34.3364 26.2 33.0964 26.2Z" stroke="#474747" stroke-width="1.5" stroke-miterlimit="10" stroke-linecap="round" stroke-linejoin="round"/>
<path d="M18 44.5H30C40 44.5 44 40.5 44 30.5V18.5C44 8.5 40 4.5 30 4.5H18C8 4.5 4 8.5 4 18.5V30.5C4 40.5 8 44.5 18 44.5Z" stroke="#474747" stroke-width="1.5" stroke-linecap="round" stroke-linejoin="round"/>
</svg>
