<svg width="48" height="49" viewBox="0 0 48 49" fill="none" xmlns="http://www.w3.org/2000/svg">
<path d="M36.2802 43.74C34.5202 44.26 32.4402 44.5 30.0002 44.5H18.0002C15.5602 44.5 13.4802 44.26 11.7202 43.74C12.1602 38.54 17.5002 34.4399 24.0002 34.4399C30.5002 34.4399 35.8402 38.54 36.2802 43.74Z" stroke="#474747" stroke-width="1.5" stroke-linecap="round" stroke-linejoin="round"/>
<path d="M30 4.5H18C8 4.5 4 8.5 4 18.5V30.5C4 38.06 6.28 42.2 11.72 43.74C12.16 38.54 17.5 34.4399 24 34.4399C30.5 34.4399 35.84 38.54 36.28 43.74C41.72 42.2 44 38.06 44 30.5V18.5C44 8.5 40 4.5 30 4.5ZM24 28.84C20.04 28.84 16.84 25.62 16.84 21.66C16.84 17.7 20.04 14.5 24 14.5C27.96 14.5 31.16 17.7 31.16 21.66C31.16 25.62 27.96 28.84 24 28.84Z" stroke="#474747" stroke-width="1.5" stroke-linecap="round" stroke-linejoin="round"/>
<path d="M31.1599 21.66C31.1599 25.62 27.9598 28.84 23.9998 28.84C20.0398 28.84 16.8398 25.62 16.8398 21.66C16.8398 17.7 20.0398 14.5 23.9998 14.5C27.9598 14.5 31.1599 17.7 31.1599 21.66Z" stroke="#474747" stroke-width="1.5" stroke-linecap="round" stroke-linejoin="round"/>
</svg>
