<svg width="48" height="49" viewBox="0 0 48 49" fill="none" xmlns="http://www.w3.org/2000/svg">
<path d="M21.5032 34.2207V38.2808C21.5032 41.7208 18.3032 44.5007 14.3632 44.5007C10.4232 44.5007 7.20312 41.7208 7.20312 38.2808V34.2207C7.20312 37.6607 10.4032 40.1007 14.3632 40.1007C18.3032 40.1007 21.5032 37.6407 21.5032 34.2207Z" stroke="#474747" stroke-width="1.5" stroke-linecap="round" stroke-linejoin="round"/>
<path d="M21.5001 28.72C21.5001 29.72 21.2201 30.6399 20.7401 31.4399C19.5601 33.3799 17.1401 34.6 14.3401 34.6C11.5401 34.6 9.12006 33.3599 7.94006 31.4399C7.46006 30.6399 7.18018 29.72 7.18018 28.72C7.18018 27 7.98013 25.46 9.26013 24.34C10.5601 23.2 12.3401 22.52 14.3201 22.52C16.3001 22.52 18.0801 23.22 19.3801 24.34C20.7001 25.44 21.5001 27 21.5001 28.72Z" stroke="#474747" stroke-width="1.5" stroke-linecap="round" stroke-linejoin="round"/>
<path d="M21.5032 28.72V34.22C21.5032 37.66 18.3032 40.1 14.3632 40.1C10.4232 40.1 7.20312 37.64 7.20312 34.22V28.72C7.20312 25.28 10.4032 22.5 14.3632 22.5C16.3432 22.5 18.1232 23.1999 19.4232 24.3199C20.7032 25.4399 21.5032 27 21.5032 28.72Z" stroke="#474747" stroke-width="1.5" stroke-linecap="round" stroke-linejoin="round"/>
<path d="M43.9999 22.4398V26.5599C43.9999 27.6599 43.1199 28.5599 41.9999 28.5999H38.0799C35.9199 28.5999 33.9399 27.0199 33.7599 24.8599C33.6399 23.5999 34.1199 22.4199 34.9599 21.5999C35.6999 20.8399 36.7199 20.3999 37.8399 20.3999H41.9999C43.1199 20.4399 43.9999 21.3398 43.9999 22.4398Z" stroke="#474747" stroke-width="1.5" stroke-linecap="round" stroke-linejoin="round"/>
<path d="M4 21.5V17.5C4 12.06 7.28 8.26 12.38 7.62C12.9 7.54 13.44 7.5 14 7.5H32C32.52 7.5 33.02 7.51998 33.5 7.59998C38.66 8.19998 42 12.02 42 17.5V20.4H37.84C36.72 20.4 35.7 20.84 34.96 21.6C34.12 22.42 33.64 23.6 33.76 24.86C33.94 27.02 35.92 28.6 38.08 28.6H42V31.5C42 37.5 38 41.5 32 41.5H27" stroke="#474747" stroke-width="1.5" stroke-linecap="round" stroke-linejoin="round"/>
</svg>
