<svg width="60" height="60" viewBox="0 0 60 60" fill="none" xmlns="http://www.w3.org/2000/svg">
<path d="M36.6667 46.8V24.8545C36.6667 22.6727 35.0334 21.0545 33.05 21.2363H32.95C29.45 21.5636 24.1334 23.5091 21.1667 25.5454L20.8834 25.7454C20.4 26.0727 19.6 26.0727 19.1167 25.7454L18.7 25.4727C15.7334 23.4545 10.4334 21.5272 6.93337 21.2181C4.95004 21.0363 3.33337 22.6727 3.33337 24.8363V46.8C3.33337 48.5454 4.63337 50.1818 6.23337 50.4L6.71671 50.4727C10.3334 51 15.9167 53 19.1167 54.9091L19.1834 54.9454C19.6334 55.2181 20.35 55.2181 20.7834 54.9454C23.9834 53.0181 29.5834 51 33.2167 50.4727L33.7667 50.4C35.3667 50.1818 36.6667 48.5454 36.6667 46.8Z" stroke="#00AA55" stroke-width="1.5" stroke-linecap="round" stroke-linejoin="round"/>
<path d="M20 26.3455V53.6182" stroke="#00AA55" stroke-width="1.5" stroke-linecap="round" stroke-linejoin="round"/>
<path d="M12.9166 31.8H9.16663" stroke="#00AA55" stroke-width="1.5" stroke-linecap="round" stroke-linejoin="round"/>
<path d="M14.1666 37.2546H9.16663" stroke="#00AA55" stroke-width="1.5" stroke-linecap="round" stroke-linejoin="round"/>
<path d="M25.8333 37.273C27.2166 38.7821 29.4499 38.7821 30.8333 37.273L52.4999 13.6367C53.8833 12.1276 53.8833 9.6912 52.4999 8.18211C51.1166 6.67302 48.8833 6.67302 47.4999 8.18211L25.8333 31.8185C24.4499 33.3276 24.4499 35.7639 25.8333 37.273Z" stroke="#00AA55" stroke-width="1.5" stroke-linecap="round" stroke-linejoin="round"/>
<path d="M50.0167 16.3457L45.0167 10.8911" stroke="#00AA55" stroke-width="1.5" stroke-linecap="round" stroke-linejoin="round"/>
<path d="M34.1666 4.43672L36.6666 3.63672L35.9333 6.36399L36.6666 9.09126L34.1666 8.29126L31.6666 9.09126L32.4 6.36399L31.6666 3.63672L34.1666 4.43672Z" stroke="#00AA55" stroke-linecap="round" stroke-linejoin="round"/>
<path d="M27.5 15.3457L30 14.5457L29.2667 17.2729L30 20.0002L27.5 19.2002L25 20.0002L25.7333 17.2729L25 14.5457L27.5 15.3457Z" stroke="#00AA55" stroke-linecap="round" stroke-linejoin="round"/>
<path d="M52.5 24.4367L55 23.6367L54.2667 26.364L55 29.0913L52.5 28.2913L50 29.0913L50.7333 26.364L50 23.6367L52.5 24.4367Z" stroke="#00AA55" stroke-linecap="round" stroke-linejoin="round"/>
</svg>
