<svg width="60" height="61" viewBox="0 0 60 61" fill="none" xmlns="http://www.w3.org/2000/svg">
<path d="M44.9999 18.4C44.8499 18.375 44.675 18.375 44.525 18.4C41.075 18.275 38.325 15.45 38.325 11.95C38.325 8.375 41.1999 5.5 44.7749 5.5C48.3499 5.5 51.2249 8.4 51.2249 11.95C51.1999 15.45 48.4499 18.275 44.9999 18.4Z" stroke="#00AA55" stroke-width="1.5" stroke-linecap="round" stroke-linejoin="round"/>
<path d="M42.4249 36.5999C45.8499 37.1749 49.6249 36.5749 52.2749 34.7999C55.7999 32.4499 55.7999 28.5999 52.2749 26.2499C49.5999 24.4749 45.7749 23.8749 42.3499 24.4749" stroke="#00AA55" stroke-width="1.5" stroke-linecap="round" stroke-linejoin="round"/>
<path d="M14.9252 18.4C15.0752 18.375 15.2502 18.375 15.4002 18.4C18.8502 18.275 21.6002 15.45 21.6002 11.95C21.6002 8.375 18.7252 5.5 15.1502 5.5C11.5752 5.5 8.7002 8.4 8.7002 11.95C8.7252 15.45 11.4752 18.275 14.9252 18.4Z" stroke="#00AA55" stroke-width="1.5" stroke-linecap="round" stroke-linejoin="round"/>
<path d="M17.5001 36.5999C14.0751 37.1749 10.3001 36.5749 7.6501 34.7999C4.1251 32.4499 4.1251 28.5999 7.6501 26.2499C10.3251 24.4749 14.1501 23.8749 17.5751 24.4749" stroke="#00AA55" stroke-width="1.5" stroke-linecap="round" stroke-linejoin="round"/>
<path d="M29.9999 37.0751C29.8499 37.0501 29.675 37.0501 29.525 37.0751C26.075 36.9501 23.325 34.1251 23.325 30.6251C23.325 27.0501 26.1999 24.175 29.7749 24.175C33.3499 24.175 36.225 27.0751 36.225 30.6251C36.2 34.1251 33.4499 36.9751 29.9999 37.0751Z" stroke="#00AA55" stroke-width="1.5" stroke-linecap="round" stroke-linejoin="round"/>
<path d="M22.725 44.9501C19.2 47.3001 19.2 51.1501 22.725 53.5001C26.725 56.1751 33.275 56.1751 37.275 53.5001C40.8 51.1501 40.8 47.3001 37.275 44.9501C33.3 42.3001 26.725 42.3001 22.725 44.9501Z" stroke="#00AA55" stroke-width="1.5" stroke-linecap="round" stroke-linejoin="round"/>
</svg>
