<svg width="42" height="51" viewBox="0 0 42 51" fill="none" xmlns="http://www.w3.org/2000/svg">
<path d="M20.9998 18.75C24.9077 18.75 27.291 19.4614 30.6482 21.1631H30.6492C32.2255 21.9984 33.1597 22.8999 33.8064 23.8574C34.4664 24.8346 34.851 25.9009 35.2927 27.1504L35.2957 27.1592L40.2712 40.6943C40.3417 41.0721 40.206 41.564 39.6902 42.2031C39.1668 42.8515 38.3438 43.5352 37.3201 44.2207C35.2795 45.5872 32.6061 46.8523 30.4294 47.7852L30.4265 47.7871C27.4758 49.069 24.3347 49.7459 21.0232 49.749L19.2498 49.6436V44.6035L20.9255 44.7715L20.9626 44.7754H20.9998C24.1613 44.7754 27.4555 44.0754 30.8757 42.7227L31.5066 42.4727L31.322 41.8203C30.9391 40.4678 29.921 39.3902 28.4304 38.5518C28.8542 38.6817 29.2984 38.75 29.7498 38.75C30.9432 38.75 32.0875 38.2755 32.9314 37.4316C33.7753 36.5877 34.2498 35.4435 34.2498 34.25C34.2498 33.0565 33.7753 31.9123 32.9314 31.0684C32.0875 30.2245 30.9432 29.75 29.7498 29.75C28.5563 29.75 27.412 30.2245 26.5681 31.0684C25.7242 31.9123 25.2498 33.0566 25.2498 34.25C25.2498 35.4434 25.7242 36.5877 26.5681 37.4316C26.7618 37.6253 26.9718 37.7987 27.1941 37.9521C26.7822 37.7763 26.3601 37.6165 25.9392 37.4736C24.6044 36.5782 23.6239 35.2457 22.9646 34.083C22.6323 33.497 22.3887 32.9677 22.2273 32.583C22.1467 32.391 22.0868 32.2349 22.0466 32.127C22.0267 32.0735 22.0116 32.0313 22.0007 32.001C21.9957 31.987 21.9899 31.9714 21.9861 31.9609C21.9842 31.9557 21.9813 31.9474 21.9783 31.9395C21.9768 31.9356 21.9746 31.9288 21.9714 31.9209C21.9702 31.9179 21.9605 31.8932 21.946 31.8643L21.6531 31.2803L21.0339 31.4893L16.6091 32.9893L15.9021 33.2295L16.1384 33.9375L16.1423 33.9492C16.1448 33.9569 16.1473 33.9648 16.1511 33.9766C16.1585 33.9995 16.1684 34.03 16.1804 34.0664C16.2044 34.1393 16.237 34.237 16.2791 34.3555C16.3632 34.5923 16.4851 34.9133 16.6482 35.2949C16.8753 35.8263 17.1855 36.4772 17.5906 37.1855C17.5773 37.1888 17.5639 37.192 17.5505 37.1953C15.354 37.7189 13.6218 38.4266 12.4246 39.3662C11.1999 40.3275 10.5251 41.545 10.5251 43V47.3359C8.54815 46.4879 6.34091 45.5156 4.59644 44.416C3.56589 43.7664 2.75219 43.1064 2.24683 42.4492C1.76015 41.8164 1.6041 41.2497 1.72339 40.7031L6.70386 27.1592L6.70679 27.1504C7.1485 25.901 7.53316 24.8346 8.19312 23.8574C8.79953 22.9596 9.65902 22.1112 11.0632 21.3203L11.3513 21.1631C14.709 19.4611 17.0673 18.75 20.9998 18.75ZM20.9998 1.25C22.7899 1.25 24.5073 1.96074 25.7732 3.22656C27.0391 4.49243 27.7498 6.20979 27.7498 8C27.7498 9.79021 27.0391 11.5076 25.7732 12.7734C24.5073 14.0393 22.7899 14.75 20.9998 14.75C19.2098 14.75 17.4931 14.039 16.2273 12.7734C14.9614 11.5076 14.2498 9.79021 14.2498 8C14.2498 6.20979 14.9614 4.49243 16.2273 3.22656C17.4931 1.96099 19.2098 1.25004 20.9998 1.25Z" stroke="#00AA55" stroke-width="1.5"/>
</svg>
