<svg width="32" height="33" viewBox="0 0 32 33" fill="none" xmlns="http://www.w3.org/2000/svg">
<path d="M13.4269 4.26002L4.18686 11.66C3.14686 12.4867 2.48019 14.2334 2.70686 15.54L4.48019 26.1533C4.80019 28.0467 6.61352 29.58 8.53352 29.58H23.4669C25.3735 29.58 27.2002 28.0333 27.5202 26.1533L29.2935 15.54C29.5069 14.2334 28.8402 12.4867 27.8135 11.66L18.5735 4.27336C17.1468 3.1267 14.8402 3.12668 13.4269 4.26002Z" stroke="#00AA55" stroke-width="1.5" stroke-linecap="round" stroke-linejoin="round"/>
<path d="M15.9998 21.1667C17.8408 21.1667 19.3332 19.6743 19.3332 17.8333C19.3332 15.9924 17.8408 14.5 15.9998 14.5C14.1589 14.5 12.6665 15.9924 12.6665 17.8333C12.6665 19.6743 14.1589 21.1667 15.9998 21.1667Z" stroke="#00AA55" stroke-width="1.5" stroke-linecap="round" stroke-linejoin="round"/>
</svg>
