<svg width="57" height="57" viewBox="0 0 57 57" fill="none" xmlns="http://www.w3.org/2000/svg">
<g clip-path="url(#clip0_1599_1919)">
<path d="M48.8126 29.8408V55.1139C48.8126 56.1243 48.0093 56.94 46.9987 56.94H10.477C9.46649 56.94 8.65088 56.1244 8.65088 55.1139V29.8408L28.7379 9.75378L48.8126 29.8408Z" fill="#DBE1F1"/>
<path d="M48.8125 29.8408V55.1139C48.8125 56.1243 48.0091 56.94 46.9986 56.94H28.7378V9.75378L48.8125 29.8408Z" fill="#D0D5E5"/>
<path d="M54.522 32.2026C52.3793 34.3452 48.9221 34.3452 46.7795 32.2026L28.7378 14.1609L10.6959 32.2026C8.56546 34.3452 5.08383 34.3452 2.95343 32.2026C0.810772 30.0599 0.810772 26.6026 2.95343 24.4599L24.8665 2.54688C25.9012 1.51208 27.2769 0.939941 28.7378 0.939941C30.1987 0.939941 31.5745 1.51208 32.609 2.54688L54.522 24.4599C56.6646 26.6026 56.6646 30.0599 54.522 32.2026Z" fill="#FF6243"/>
<path d="M29.7607 23.1572C29.4442 22.9503 29.0911 22.8528 28.7379 22.8528C28.3848 22.8528 28.0317 22.9502 27.7152 23.1572C27.3866 23.3886 19.6074 28.6963 19.6074 35.6355C19.6074 42.8182 27.6788 46.2999 28.0316 46.4459C28.2509 46.5432 28.4944 46.592 28.7378 46.592C28.9813 46.592 29.2248 46.5434 29.4441 46.4459C29.797 46.2998 37.8682 42.818 37.8682 35.6355C37.8685 28.6964 30.0893 23.3886 29.7607 23.1572Z" fill="#7CCC92"/>
<path d="M37.8682 35.6355C37.8682 42.8182 29.7969 46.2999 29.444 46.4459C29.2247 46.5433 28.9813 46.592 28.7378 46.592V22.853C29.0909 22.853 29.444 22.9503 29.7606 23.1574C30.089 23.3886 37.8682 28.6964 37.8682 35.6355Z" fill="#34B772"/>
<path d="M30.5516 35.6355V46.592C30.5516 47.6024 29.7483 48.4181 28.7377 48.4181C27.7272 48.4181 26.9116 47.6025 26.9116 46.592V35.6355C26.9116 34.625 27.7271 33.8093 28.7377 33.8093C29.7483 33.8094 30.5516 34.625 30.5516 35.6355Z" fill="#DDDD47"/>
<path d="M30.5517 35.6355V46.592C30.5517 47.6024 29.7483 48.4181 28.7378 48.4181V33.8094C29.7483 33.8094 30.5517 34.6251 30.5517 35.6355Z" fill="#C7D100"/>
<path d="M54.522 32.2026C52.3793 34.3452 48.9221 34.3452 46.7795 32.2026L28.7378 14.1609V0.939941C30.1987 0.939941 31.5744 1.51208 32.609 2.54688L54.522 24.4599C56.6646 26.6026 56.6646 30.0599 54.522 32.2026Z" fill="#FF0C38"/>
</g>
<defs>
<clipPath id="clip0_1599_1919">
<rect width="56" height="56" fill="white" transform="translate(0.737549 0.939941)"/>
</clipPath>
</defs>
</svg>
