<svg width="57" height="57" viewBox="0 0 57 57" fill="none" xmlns="http://www.w3.org/2000/svg">
<g clip-path="url(#clip0_1599_1656)">
<path d="M32.6385 0.0534668H28.6143V2.68148H32.6385V0.0534668Z" fill="#F93030"/>
<path d="M29.107 0.0534668H28.6143V5.96659H29.107V0.0534668Z" fill="#2D4151"/>
<path d="M44.7687 20.5711C44.7687 29.426 37.5917 36.6031 28.738 36.6031C19.8831 36.6031 12.7061 29.426 12.7061 20.5711C12.7061 11.7175 19.8831 4.54041 28.738 4.54041C35.1119 4.54041 40.616 8.25951 43.1993 13.6454C44.2058 15.7421 44.7687 18.0901 44.7687 20.5711Z" fill="#CCCCCC"/>
<path d="M43.1991 13.6454H28.7378V4.54041C35.1116 4.54041 40.6158 8.25951 43.1991 13.6454Z" fill="#B3B3B3"/>
<path d="M44.6534 11.8306H12.8215V15.7398H44.6534V11.8306Z" fill="#B3B3B3"/>
<path d="M17.2319 12.389H16.2825V15.1813H17.2319V12.389Z" fill="#808080"/>
<path d="M20.6547 12.389H19.7053V15.1813H20.6547V12.389Z" fill="#808080"/>
<path d="M24.0778 12.389H23.1284V15.1813H24.0778V12.389Z" fill="#808080"/>
<path d="M27.5007 12.389H26.5513V15.1813H27.5007V12.389Z" fill="#808080"/>
<path d="M30.9238 12.389H29.9744V15.1813H30.9238V12.389Z" fill="#808080"/>
<path d="M34.3464 12.389H33.397V15.1813H34.3464V12.389Z" fill="#808080"/>
<path d="M37.7695 12.389H36.8201V15.1813H37.7695V12.389Z" fill="#808080"/>
<path d="M41.1926 12.389H40.2432V15.1813H41.1926V12.389Z" fill="#808080"/>
<path d="M45.9965 10.812H11.4785V11.8304H45.9965V10.812Z" fill="#808080"/>
<path d="M49.4339 55.2864V15.7292H8.04127V55.2864H2.38623V56.0535H55.0889V55.2864H49.4339Z" fill="#CCCCCC"/>
<path d="M28.9833 38.8217H20.2368V55.2059H28.9833V38.8217Z" fill="#B3B3B3"/>
<path d="M28.3671 39.4376H20.8525V54.59H28.3671V39.4376Z" fill="#2D4151"/>
<path opacity="0.2" d="M27.9278 39.9746V54.1303H22.0146C22.0146 54.1303 27.2034 48.6514 27.9278 39.9746Z" fill="white"/>
<path d="M28.6755 43.0717H20.5449V43.6877H28.6755V43.0717Z" fill="#B3B3B3"/>
<path d="M37.2382 38.8217H28.4917V55.2059H37.2382V38.8217Z" fill="#B3B3B3"/>
<path d="M36.6223 39.4376H29.1077V54.59H36.6223V39.4376Z" fill="#2D4151"/>
<path opacity="0.2" d="M36.1831 39.9746V54.1303H30.27C30.27 54.1303 35.4588 48.6514 36.1831 39.9746Z" fill="white"/>
<path d="M36.9306 43.0717H28.8V43.6877H36.9306V43.0717Z" fill="#B3B3B3"/>
<path d="M47.8193 35.4543H39.0728V51.8386H47.8193V35.4543Z" fill="#B3B3B3"/>
<path d="M47.2033 36.0703H39.6887V51.2227H47.2033V36.0703Z" fill="#2D4151"/>
<path opacity="0.2" d="M46.764 36.6074V50.763H40.8508C40.8508 50.763 46.0396 45.2841 46.764 36.6074Z" fill="white"/>
<path d="M47.5114 39.7045H39.3809V40.3204H47.5114V39.7045Z" fill="#B3B3B3"/>
<path d="M18.402 35.4543H9.65552V51.8386H18.402V35.4543Z" fill="#B3B3B3"/>
<path d="M17.7861 36.0703H10.2715V51.2227H17.7861V36.0703Z" fill="#2D4151"/>
<path opacity="0.2" d="M17.3465 36.6074V50.763H11.4333C11.4333 50.763 16.6221 45.2841 17.3465 36.6074Z" fill="white"/>
<path d="M18.0942 39.7045H9.96362V40.3204H18.0942V39.7045Z" fill="#B3B3B3"/>
<path d="M47.8193 18.1576H39.0728V34.5419H47.8193V18.1576Z" fill="#B3B3B3"/>
<path d="M47.2033 18.7736H39.6887V33.9259H47.2033V18.7736Z" fill="#2D4151"/>
<path opacity="0.2" d="M46.764 19.3106V33.4663H40.8508C40.8508 33.4663 46.0396 27.9874 46.764 19.3106Z" fill="white"/>
<path d="M47.5114 22.4077H39.3809V23.0236H47.5114V22.4077Z" fill="#B3B3B3"/>
<path d="M18.402 18.1576H9.65552V34.5419H18.402V18.1576Z" fill="#B3B3B3"/>
<path d="M17.7861 18.7736H10.2715V33.9259H17.7861V18.7736Z" fill="#2D4151"/>
<path opacity="0.2" d="M17.3465 19.3106V33.4663H11.4333C11.4333 33.4663 16.6221 27.9874 17.3465 19.3106Z" fill="white"/>
<path d="M18.0942 22.4077H9.96362V23.0236H18.0942V22.4077Z" fill="#B3B3B3"/>
<path d="M28.2077 18.1576H19.4612V34.5419H28.2077V18.1576Z" fill="#B3B3B3"/>
<path d="M27.5917 18.7736H20.0771V33.9259H27.5917V18.7736Z" fill="#2D4151"/>
<path opacity="0.2" d="M27.1525 19.3106V33.4663H21.2393C21.2393 33.4663 26.4281 27.9874 27.1525 19.3106Z" fill="white"/>
<path d="M27.8998 22.4077H19.7693V23.0236H27.8998V22.4077Z" fill="#B3B3B3"/>
<path d="M38.0136 18.1576H29.2671V34.5419H38.0136V18.1576Z" fill="#B3B3B3"/>
<path d="M37.3979 18.7736H29.8833V33.9259H37.3979V18.7736Z" fill="#2D4151"/>
<path opacity="0.2" d="M36.9584 19.3106V33.4663H31.0452C31.0452 33.4663 36.2341 27.9874 36.9584 19.3106Z" fill="white"/>
<path d="M37.7057 22.4077H29.5752V23.0236H37.7057V22.4077Z" fill="#B3B3B3"/>
<path d="M38.5108 35.3575H18.9646V37.9856H38.5108V35.3575Z" fill="white" stroke="#595959" stroke-width="1.83779" stroke-miterlimit="10"/>
<path d="M23.7101 35.8739V36.0453H22.9355V36.5618H23.6643V36.7331H22.9355V37.3003H23.744V37.4717H22.7424V35.874L23.7101 35.8739Z" fill="#2D4151"/>
<path d="M24.7674 35.8738L25.1294 37.2085H25.1343L25.5179 35.8738H25.7882V37.4715H25.5952V36.1754H25.5879L25.2157 37.4715H25.0477L24.6707 36.1754H24.6659V37.4715H24.4729V35.8738H24.7674Z" fill="#2D4151"/>
<path d="M26.5608 35.8738H27.1473C27.1971 35.8738 27.2454 35.885 27.292 35.9076C27.3387 35.9301 27.3798 35.9595 27.4151 35.9957C27.4505 36.0319 27.4788 36.0729 27.4997 36.1187C27.5206 36.1647 27.531 36.2109 27.531 36.2575C27.531 36.296 27.5275 36.334 27.5202 36.3709C27.5129 36.408 27.5013 36.4429 27.4852 36.4759C27.4691 36.5089 27.4494 36.5378 27.4262 36.5628C27.4029 36.5878 27.3751 36.6074 27.3429 36.622C27.3879 36.6332 27.4266 36.6525 27.4587 36.6799C27.4909 36.7072 27.5177 36.739 27.5395 36.7752C27.5612 36.8113 27.5774 36.8509 27.5878 36.8935C27.5983 36.9361 27.6035 36.9784 27.6035 37.0201C27.6035 37.0716 27.5926 37.1243 27.5708 37.1782C27.5491 37.2321 27.5198 37.2808 27.4827 37.3243C27.4457 37.3678 27.4028 37.4031 27.3536 37.4305C27.3045 37.4578 27.2526 37.4715 27.1979 37.4715H26.5608V35.8738ZM26.7538 36.5497H27.1095C27.14 36.5497 27.1696 36.5413 27.1985 36.5243C27.2272 36.5074 27.2525 36.4861 27.2742 36.4603C27.2959 36.4346 27.313 36.406 27.3259 36.3746C27.3387 36.3433 27.3451 36.313 27.3451 36.2842C27.3451 36.26 27.3403 36.2339 27.3307 36.2057C27.3211 36.1775 27.3062 36.1518 27.2863 36.1285C27.2663 36.1052 27.2414 36.0854 27.2119 36.0693C27.1822 36.0533 27.148 36.0452 27.1096 36.0452H26.754V36.5497H26.7538ZM26.7538 37.3003H27.1289C27.1625 37.3003 27.1962 37.2923 27.2298 37.2761C27.2635 37.2601 27.2937 37.2387 27.32 37.2122C27.3465 37.1856 27.3681 37.1551 27.3848 37.1204C27.4017 37.0858 27.4101 37.0501 27.4101 37.013C27.4101 36.9792 27.4037 36.9441 27.3908 36.9079C27.378 36.8717 27.3597 36.8392 27.3357 36.8102C27.3116 36.7813 27.2823 36.7576 27.2478 36.739C27.2135 36.7205 27.1744 36.7112 27.1313 36.7112H26.7538V37.3003Z" fill="#2D4151"/>
<path d="M28.9621 35.8738L29.4785 37.4715H29.266L29.1189 36.967H28.5759L28.4287 37.4715H28.2163L28.7304 35.8738H28.9621ZM28.6265 36.7958H29.0682L28.8486 36.0452H28.8462L28.6265 36.7958Z" fill="#2D4151"/>
<path d="M30.2751 36.9551C30.2751 37.0034 30.2831 37.0508 30.2992 37.0975C30.3153 37.1442 30.3386 37.1852 30.3692 37.2206C30.3997 37.256 30.4363 37.2845 30.4791 37.3063C30.5217 37.328 30.5688 37.3388 30.6202 37.3388C30.6637 37.3388 30.7055 37.3333 30.7458 37.3219C30.7859 37.3107 30.8209 37.2935 30.8509 37.2701C30.8805 37.2468 30.9043 37.2182 30.9221 37.1843C30.9398 37.1506 30.9485 37.1103 30.9485 37.0637C30.9485 37.0124 30.9361 36.9676 30.9112 36.9298C30.8862 36.892 30.8548 36.8599 30.817 36.8334C30.7792 36.8068 30.7376 36.7855 30.6927 36.7693C30.6476 36.7533 30.605 36.7404 30.5648 36.7308C30.5084 36.7179 30.4538 36.6982 30.4007 36.6716C30.3475 36.6451 30.3006 36.6121 30.2595 36.5727C30.2185 36.5333 30.1851 36.4867 30.1594 36.4328C30.1336 36.3788 30.1208 36.3189 30.1208 36.253C30.1208 36.1935 30.1345 36.138 30.162 36.0865C30.1894 36.035 30.2258 35.9904 30.2709 35.9526C30.3161 35.9147 30.3677 35.8854 30.4257 35.8645C30.4839 35.8437 30.5435 35.8332 30.6048 35.8332C30.7032 35.8332 30.7842 35.8504 30.848 35.8851C30.9117 35.9197 30.9621 35.9623 30.9993 36.0131C31.0364 36.0637 31.0626 36.118 31.0779 36.1759C31.0932 36.2338 31.1009 36.2862 31.1009 36.3327H30.9079C30.9079 36.2862 30.8995 36.2427 30.8826 36.2024C30.8659 36.1622 30.8435 36.1276 30.8154 36.0987C30.7873 36.0697 30.7554 36.0468 30.7193 36.0299C30.6832 36.0131 30.6451 36.0046 30.6051 36.0046C30.5681 36.0046 30.5325 36.0102 30.4982 36.0214C30.4637 36.0328 30.4329 36.0493 30.4056 36.0709C30.3783 36.0926 30.3564 36.1189 30.3395 36.1494C30.3226 36.18 30.3142 36.2137 30.3142 36.2508C30.3142 36.2991 30.3252 36.3409 30.3469 36.3763C30.3687 36.4118 30.3963 36.4424 30.4302 36.4681C30.464 36.4939 30.5014 36.5143 30.5424 36.5297C30.5834 36.5451 30.6223 36.5574 30.6594 36.5672C30.7222 36.5817 30.7825 36.6026 30.8405 36.6299C30.8984 36.6572 30.9499 36.6915 30.995 36.7325C31.04 36.7735 31.0758 36.8214 31.1023 36.8761C31.1289 36.9308 31.1421 36.9928 31.1421 37.0619C31.1421 37.1343 31.1293 37.1983 31.1034 37.2538C31.0776 37.3094 31.0414 37.3561 30.9946 37.3938C30.9478 37.4316 30.8926 37.4605 30.8289 37.4806C30.7651 37.5008 30.6963 37.5108 30.622 37.5108C30.5526 37.5108 30.4854 37.4963 30.4199 37.4673C30.3546 37.4384 30.297 37.3989 30.247 37.349C30.1971 37.2992 30.1572 37.2404 30.1272 37.1729C30.0974 37.1053 30.0825 37.0329 30.0825 36.9557H30.2751V36.9551Z" fill="#2D4151"/>
<path d="M32.0365 36.9551C32.0365 37.0034 32.0445 37.0508 32.0607 37.0975C32.0768 37.1442 32.1001 37.1852 32.1307 37.2206C32.1612 37.256 32.1978 37.2845 32.2405 37.3063C32.2832 37.328 32.3302 37.3388 32.3817 37.3388C32.4252 37.3388 32.467 37.3333 32.5072 37.3219C32.5474 37.3107 32.5824 37.2935 32.6123 37.2701C32.642 37.2468 32.6658 37.2182 32.6835 37.1843C32.7013 37.1506 32.71 37.1103 32.71 37.0637C32.71 37.0124 32.6976 36.9676 32.6727 36.9298C32.6477 36.892 32.6163 36.8599 32.5785 36.8334C32.5406 36.8068 32.4991 36.7855 32.4542 36.7693C32.4091 36.7533 32.3664 36.7404 32.3263 36.7308C32.2699 36.7179 32.2153 36.6982 32.1622 36.6716C32.109 36.6451 32.062 36.6121 32.021 36.5727C31.98 36.5333 31.9466 36.4867 31.9209 36.4328C31.8951 36.3788 31.8823 36.3189 31.8823 36.253C31.8823 36.1935 31.896 36.138 31.9235 36.0865C31.9509 36.035 31.9873 35.9904 32.0324 35.9526C32.0776 35.9147 32.1292 35.8854 32.1872 35.8645C32.2453 35.8437 32.305 35.8332 32.3663 35.8332C32.4646 35.8332 32.5457 35.8504 32.6095 35.8851C32.6732 35.9197 32.7236 35.9623 32.7608 36.0131C32.7979 36.0637 32.8241 36.118 32.8394 36.1759C32.8546 36.2338 32.8624 36.2862 32.8624 36.3327H32.6694C32.6694 36.2862 32.661 36.2427 32.6441 36.2024C32.6274 36.1622 32.6049 36.1276 32.5769 36.0987C32.5488 36.0697 32.5169 36.0468 32.4808 36.0299C32.4447 36.0131 32.4066 36.0046 32.3666 36.0046C32.3296 36.0046 32.294 36.0102 32.2596 36.0214C32.2251 36.0328 32.1943 36.0493 32.1671 36.0709C32.1398 36.0926 32.1178 36.1189 32.101 36.1494C32.0841 36.18 32.0757 36.2137 32.0757 36.2508C32.0757 36.2991 32.0867 36.3409 32.1084 36.3763C32.1302 36.4118 32.1578 36.4424 32.1916 36.4681C32.2255 36.4939 32.2628 36.5143 32.3039 36.5297C32.3449 36.5451 32.3838 36.5574 32.4209 36.5672C32.4837 36.5817 32.544 36.6026 32.602 36.6299C32.6599 36.6572 32.7114 36.6915 32.7565 36.7325C32.8014 36.7735 32.8373 36.8214 32.8638 36.8761C32.8904 36.9308 32.9036 36.9928 32.9036 37.0619C32.9036 37.1343 32.8907 37.1983 32.8649 37.2538C32.8391 37.3094 32.8029 37.3561 32.7561 37.3938C32.7093 37.4316 32.6541 37.4605 32.5904 37.4806C32.5266 37.5008 32.4577 37.5108 32.3834 37.5108C32.3141 37.5108 32.2468 37.4963 32.1814 37.4673C32.1161 37.4384 32.0585 37.3989 32.0085 37.349C31.9586 37.2992 31.9186 37.2404 31.8887 37.1729C31.8589 37.1053 31.844 37.0329 31.844 36.9557H32.0365V36.9551Z" fill="#2D4151"/>
<path d="M33.7335 35.8738L34.1183 36.6292H34.1233L34.5081 35.8738H34.7326L34.2161 36.8102V37.4715H34.0231V36.8102L33.509 35.8738H33.7335Z" fill="#2D4151"/>
<path d="M43.5209 44.2273C42.9376 42.9546 42.8243 41.5163 43.201 40.168L44.1779 36.6716L43.5209 44.2273Z" fill="#B51D1D"/>
<path d="M47.0732 45.7055L46.7774 45.9775C46.0183 46.6757 44.8274 46.5888 44.1777 45.7876V42.9953L47.0732 45.7055Z" fill="#B51D1D"/>
<path d="M44.1777 34.5419H43.5208V55.2864H44.1777V34.5419Z" fill="#808080"/>
<path d="M44.1777 35.2754C44.1777 35.2754 46.7445 38.232 45.8411 40.9421C44.9378 43.6523 47.073 45.7055 47.073 45.7055C47.073 45.7055 45.5026 45.5802 44.1777 43.8167C42.6276 41.7531 44.1777 35.2754 44.1777 35.2754Z" fill="#F93030"/>
<path d="M43.5208 40.4289L44.1777 41.4143V35.2754H43.5208V40.4289Z" fill="#F93030"/>
<path d="M27.5671 47.0194H27.1565V50.6741H27.5671V47.0194Z" fill="#CCCCCC"/>
<path d="M30.3186 47.0194H29.908V50.6741H30.3186V47.0194Z" fill="#CCCCCC"/>
</g>
<defs>
<clipPath id="clip0_1599_1656">
<rect width="56" height="56" fill="white" transform="translate(0.737549 0.0534668)"/>
</clipPath>
</defs>
</svg>
