<svg width="57" height="57" viewBox="0 0 57 57" fill="none" xmlns="http://www.w3.org/2000/svg">
<g clip-path="url(#clip0_1599_1813)">
<path d="M28.2625 54.3035C18.214 54.3035 9.4867 48.6545 5.07583 40.3595C5.24383 40.4618 5.4197 40.58 5.60783 40.7103L5.92458 40.9282C6.21858 41.1233 6.73658 41.5757 7.2852 42.0561C9.1052 43.6486 10.479 44.7817 11.5981 44.8578C13.5756 44.9882 14.2108 42.8445 14.6308 41.4515C14.763 41.0113 14.9012 40.5563 15.0255 40.3393C15.2573 39.9386 15.4787 39.9053 15.701 39.9045C15.75 39.9307 15.8663 40.0795 15.9433 40.1775C16.1236 40.4067 16.3493 40.692 16.702 40.9273C17.1806 41.245 17.605 41.4112 17.9812 41.5582C18.3417 41.6991 18.6532 41.8216 18.998 42.0771C19.2823 42.2801 19.4626 42.5067 19.6726 42.7683C19.943 43.1052 20.2475 43.4858 20.7795 43.8411C20.9142 43.9303 21.0385 44.0205 21.1592 44.1071C21.7262 44.5201 22.3798 44.997 23.4167 44.8526C24.7336 44.6636 25.1037 43.5567 25.3487 42.8243C25.4686 42.4673 25.5815 42.1305 25.7696 41.8601C26.0076 41.5118 26.1511 41.168 26.2762 40.8652C26.5011 40.3262 26.5755 40.2203 26.7732 40.1538C26.8345 40.1328 26.8677 40.1267 26.8905 40.1302C27.0681 40.1862 27.3971 40.8818 27.5738 41.2555C27.8075 41.7498 28.0726 42.3098 28.4296 42.7596C28.616 43.0055 28.7455 43.2443 28.8846 43.4963C29.1348 43.9557 29.4192 44.4772 30.0326 44.969C30.7562 45.5351 31.5533 45.8107 32.4721 45.8107C33.2053 45.8107 33.908 45.6427 34.65 45.4642C35.1583 45.3417 35.6851 45.2157 36.232 45.1475C36.5225 45.1081 36.785 45.0862 37.0308 45.0643C37.7921 45.0005 38.5105 44.9383 39.424 44.4676C39.5797 44.3871 39.7425 44.3083 39.907 44.2296C40.9963 43.7028 42.6431 42.9075 42.196 41.168C41.8565 39.7207 40.5693 39.299 39.8711 39.0715C39.6506 39.0015 39.424 38.9656 39.1973 38.9656C38.6085 38.9656 38.1272 39.2045 37.7405 39.397C37.4045 39.5641 37.1236 39.6927 36.8952 39.6411C36.225 39.4818 35.8933 39.1187 35.3447 38.5185C35.2336 38.396 35.1172 38.2708 34.993 38.1387C34.8022 37.9383 34.6911 37.7021 34.5625 37.4282C34.342 36.9592 34.0681 36.3756 33.3576 35.953C32.6436 35.5286 31.7213 35.6581 31.052 35.8515C30.6661 35.9626 30.3546 36.0606 30.1166 35.9328C29.9171 35.8278 29.827 35.6423 29.6537 35.211C29.4437 34.6903 29.1567 33.9772 28.3237 33.5843C27.8617 33.3673 27.4023 33.2615 26.9211 33.2615C26.0548 33.2615 25.3163 33.6027 24.5341 33.9641L24.1115 34.1575C23.3721 34.4865 22.9215 34.9817 22.5583 35.3798C22.2188 35.7526 21.9738 36.0212 21.5547 36.1691C20.552 36.5217 19.7706 36.6941 19.1668 36.6941C18.3548 36.6941 18.1212 36.3878 17.9996 36.0912C17.7038 35.3623 17.7318 35.1217 17.9838 34.8618C18.137 34.8618 18.3006 34.8942 18.4712 34.9231C18.928 35.0001 19.5212 35.0666 20.0305 34.9345C20.8652 34.7087 21.4138 34.4235 21.9948 34.1216C22.2381 33.9947 22.4962 33.8608 22.806 33.7165C23.0116 33.6193 23.3292 33.5642 23.6346 33.5117C24.3145 33.3945 25.7311 33.1521 25.6278 31.6882C25.522 30.3792 24.3293 30.0992 23.6162 29.9312C23.4158 29.884 23.2102 29.8385 23.0133 29.7667C22.7648 29.6783 22.4936 29.6328 22.1873 29.6276C22.3151 29.4386 22.4035 29.2041 22.428 28.9101C22.5023 27.8391 21.9572 26.972 20.8048 26.3323C20.4986 26.1635 20.1713 26.0777 19.8327 26.0777C19.3847 26.0777 19.0058 26.2221 18.6716 26.3498C18.3706 26.4636 18.1081 26.5581 17.8937 26.5275C17.1762 26.4225 16.7483 26.1048 16.1577 25.6656C15.8305 25.4223 15.4586 25.1458 14.9983 24.8816C14.6195 24.6663 14.3237 24.4415 14.0096 24.2043C13.44 23.773 12.8511 23.3258 11.8921 23.0563C10.6715 22.7133 9.63195 22.7973 8.3562 22.9863L8.04208 23.0327C7.83383 23.0625 7.64133 23.08 7.45933 23.0966C6.79695 23.1587 6.1127 23.2226 5.33045 23.7563C4.48433 24.3443 4.28308 25.1432 4.12033 25.7855C4.01708 26.1941 3.92695 26.5467 3.68195 26.8468C3.43433 27.1566 3.17445 27.3333 2.84633 27.5573C2.5882 27.7332 2.30645 27.9292 2.0177 28.1996C2.01595 28.148 2.01245 28.1016 2.01245 28.0535C2.01245 15.268 11.1562 4.62183 23.2601 2.28558C23.3572 2.43608 23.457 2.58221 23.5523 2.71433C23.8568 3.13433 23.9321 3.26821 23.912 3.51496C23.8901 3.80458 23.7798 3.94371 23.4351 4.34096L23.2636 4.54221C23.0361 4.81521 22.8025 4.94908 22.4778 5.13371C22.1908 5.29821 21.8645 5.48371 21.5057 5.79346C21.3631 5.91771 21.217 6.01221 21.0787 6.10321C20.6613 6.37971 20.0891 6.75946 19.8791 7.59158C19.6656 8.45171 20.1582 9.04583 20.4531 9.40108C20.5476 9.51658 20.7077 9.70908 20.7042 9.76071C20.6692 10.207 20.5756 10.4196 20.2545 10.7582C20.1923 10.8265 20.1381 10.8623 20.013 10.9437C19.9141 11.0067 19.81 11.075 19.6945 11.1633L19.5886 11.2596C19.5361 11.3147 19.0758 11.8222 18.8028 12.6167C18.5955 13.2423 18.5867 13.5687 18.7643 14.015L18.8028 14.1182C18.8343 14.2241 18.8641 14.5968 18.8658 14.8375L18.7923 15.9032L19.5046 16.0808C19.9727 16.1972 20.2098 16.2943 20.6885 16.5306C20.9956 16.6785 21.1977 16.8193 21.4532 16.997L21.7105 17.1711C22.0535 17.3758 22.4017 17.34 22.7718 17.2988C22.9565 17.3172 23.1192 17.3295 23.2741 17.3426C23.611 17.3688 23.9085 17.3933 24.332 17.4546L24.6067 17.4887C24.8202 17.515 24.99 17.5333 25.2262 17.5963C25.361 17.634 25.4756 17.7215 25.6655 17.8702C25.9892 18.1257 26.4328 18.4748 27.1573 18.4748C27.7908 18.4705 28.2003 18.1922 28.4996 17.9883C28.6728 17.8711 28.777 17.8028 28.9065 17.767C29.211 17.6803 29.5592 17.6838 29.9136 17.7022C30.4246 17.7311 30.9417 17.7206 31.4212 17.6016C31.6443 17.5456 31.822 17.4686 31.9917 17.3898C32.1405 17.3216 32.1956 17.298 32.214 17.2945L32.277 17.2962L32.3225 17.291C32.3802 17.2953 32.4703 17.3338 32.5841 17.382C32.809 17.4782 33.1161 17.6112 33.5798 17.627C34.524 17.627 35.987 16.4107 36.0045 16.3958C36.1672 16.2523 36.3028 16.1893 36.5286 16.0835C36.6878 16.0091 36.855 15.9295 37.0851 15.7956C37.3266 15.6355 37.5191 15.4797 37.7011 15.3301C37.9583 15.1192 38.1272 14.9792 38.4186 14.8777C39.0285 14.6607 39.319 14.5802 39.697 14.708C39.9131 14.7832 40.0006 14.8436 40.2797 15.0702C40.4162 15.1805 40.4888 15.2855 40.6113 15.4596C40.7303 15.6302 40.8563 15.807 41.027 15.989C41.1031 16.0738 41.1661 16.1535 41.2256 16.2296C41.4163 16.4702 41.6535 16.7712 42.098 17.0162C42.6518 17.3172 43.33 17.2735 43.8287 17.1728C44.0527 17.1273 44.2268 17.0853 44.4132 17.1142L44.723 17.1562C44.9365 17.1833 45.0905 17.2035 45.2401 17.2525C45.3153 17.2752 45.3941 17.3067 45.4886 17.3575C45.8718 17.5613 46.0153 17.7433 46.3522 18.2473C46.6515 18.7041 46.7171 19.0401 46.837 19.6508L46.8991 19.9632C47.005 20.5013 47.0163 20.8671 47.0312 21.3728L47.0487 21.855C47.0583 22.0868 47.0767 22.2898 47.096 22.4815C47.1336 22.8647 47.1581 23.1185 47.0715 23.4772C47.0198 23.696 46.9157 23.8403 46.7197 24.0976C46.4975 24.389 46.221 24.7521 46.0722 25.2955L46.0285 25.4442C45.8701 25.9867 45.7196 26.4995 45.8885 27.2581C45.9278 27.427 45.92 27.9231 45.9138 28.2853C45.8972 29.2758 45.8876 29.9303 46.3023 30.3521C46.4922 30.5455 46.7442 30.6513 47.012 30.6513L47.2832 30.633L47.4617 30.5472C47.7111 30.4282 47.9272 30.2576 48.1215 30.0686C48.1285 30.0843 48.1346 30.0992 48.1407 30.115C48.3813 30.6522 48.8958 30.9611 49.5538 30.9611C50.2748 30.9611 51.7343 30.4501 51.8341 29.5042C51.8577 29.2548 51.8481 29.0291 51.8358 28.8165C51.8175 28.5093 51.8236 28.4498 51.8822 28.3562C51.9163 28.33 52.0633 28.2871 52.1605 28.26C52.4667 28.1716 52.8841 28.0526 53.2708 27.679C53.6095 27.343 53.7608 27.0052 53.8825 26.7348C53.9735 26.5318 54.026 26.4207 54.1327 26.3105C54.1957 26.244 54.2815 26.2002 54.4372 26.1258C54.481 26.7628 54.5125 27.4042 54.5125 28.0535C54.5125 42.5505 42.7595 54.3035 28.2625 54.3035Z" fill="#45AAB8"/>
<path d="M28.2625 0.0534668C12.7986 0.0534668 0.262451 12.5896 0.262451 28.0535C0.262451 43.5173 12.7986 56.0535 28.2625 56.0535C43.7263 56.0535 56.2625 43.5173 56.2625 28.0535C56.2625 12.5896 43.7263 0.0534668 28.2625 0.0534668ZM24.6041 5.66659L24.7581 5.48722C25.1483 5.03659 25.5902 4.52647 25.6567 3.64972C25.7145 2.92084 25.4572 2.40634 25.179 1.98984C26.1913 1.87084 27.2186 1.80347 28.2625 1.80347C29.5443 1.80347 30.8026 1.89972 32.0355 2.07734C32.2647 2.36347 32.5657 2.66184 33.054 2.86222C33.572 3.08534 34.1836 3.26209 34.9536 3.08009C35.1811 3.02584 35.3578 2.92959 35.5101 2.82459C36.0508 2.97947 36.5854 3.14747 37.1122 3.33559C37.2968 3.86847 37.6512 4.50372 38.5157 4.61309C39.0022 4.68222 39.4091 4.60609 39.7652 4.45297C47.1808 8.07459 52.6295 15.0868 54.1064 23.4702C53.963 23.773 53.942 24.0705 53.9376 24.2586C53.9358 24.3111 53.9402 24.3645 53.9446 24.3785C53.9131 24.4275 53.8728 24.4528 53.6777 24.5465C53.4546 24.6541 53.1501 24.8011 52.8692 25.0968C52.5498 25.4267 52.4028 25.7531 52.2847 26.0156C52.1928 26.2203 52.1403 26.3315 52.045 26.4268C51.9837 26.4863 51.8647 26.5222 51.6774 26.5765C51.3117 26.6815 50.7596 26.8398 50.3886 27.441C50.0359 28.0088 50.0657 28.5338 50.0867 28.9171C50.0893 28.9608 50.0928 29.0055 50.0946 29.051C50.0272 29.0842 49.945 29.1183 49.8592 29.1463C49.91 28.8698 49.917 28.4875 49.6693 28.0946C49.3351 27.5845 48.8932 27.5075 48.6604 27.5075C48.216 27.5075 47.8808 27.763 47.6656 27.9721C47.67 27.5486 47.6603 27.1583 47.5912 26.8661C47.5265 26.5721 47.5676 26.4085 47.7058 25.9342L47.754 25.768C47.8161 25.5422 47.9394 25.3812 48.1092 25.1572C48.3428 24.851 48.6333 24.4703 48.7716 23.8823C48.9264 23.2418 48.881 22.7693 48.8363 22.3117C48.8197 22.1498 48.8031 21.9792 48.7952 21.7823L48.7786 21.3195C48.7611 20.7752 48.7471 20.3053 48.6132 19.6193L48.5528 19.314C48.4181 18.6253 48.3008 18.0312 47.8091 17.2813C47.3882 16.6522 47.0557 16.2103 46.3181 15.8183C46.144 15.723 45.9628 15.646 45.7782 15.5882C45.4798 15.4885 45.2068 15.4543 44.9426 15.4202L44.6696 15.3835C44.2032 15.3152 43.7832 15.3966 43.4743 15.4596C43.2241 15.5103 43.0648 15.5515 42.9397 15.4823C42.8146 15.4141 42.7551 15.3423 42.6002 15.1463C42.518 15.0422 42.4313 14.9328 42.3167 14.806C42.2012 14.6817 42.1224 14.5662 42.0463 14.4568C41.8958 14.2425 41.7094 13.9747 41.3813 13.7096C41.0313 13.4252 40.7645 13.2257 40.2622 13.0498C39.3688 12.7541 38.5472 12.9746 37.8385 13.2257C37.2575 13.427 36.9031 13.7192 36.589 13.9765C36.4516 14.0902 36.3063 14.211 36.1655 14.3055C36.0272 14.386 35.903 14.442 35.7857 14.498C35.5092 14.6266 35.1951 14.7736 34.8477 15.0825C34.6062 15.2942 33.7863 15.8288 33.5965 15.877C33.5116 15.8735 33.4276 15.8393 33.2745 15.7737C33.0767 15.688 32.8072 15.5733 32.4957 15.548L32.3058 15.5366C32.2472 15.5366 32.1868 15.5401 32.1422 15.5445C31.7449 15.5742 31.4658 15.7037 31.2602 15.7973C31.1797 15.8341 31.0975 15.8761 30.9942 15.9015C30.6915 15.9767 30.3502 15.9715 30.0072 15.9531C29.4586 15.9251 28.9205 15.9408 28.427 16.0808C28.0218 16.1955 27.7287 16.3932 27.5152 16.5385C27.2851 16.6942 27.2299 16.7213 27.1425 16.7222C27.0541 16.7222 26.9911 16.6855 26.747 16.493C26.5055 16.3022 26.1738 16.0406 25.6847 15.905C25.3321 15.8105 25.0809 15.7798 24.815 15.7475L24.5726 15.7177C24.1132 15.6512 23.7851 15.6241 23.4132 15.5935C23.2408 15.5795 23.0588 15.5655 22.8462 15.5445L22.5995 15.5401L22.5592 15.5558C22.5303 15.5576 22.4962 15.5593 22.4586 15.5611L22.449 15.555C22.169 15.3598 21.8793 15.1595 21.4541 14.953C21.1408 14.799 20.8862 14.6817 20.6062 14.5811C20.594 14.2687 20.559 13.8522 20.4653 13.5722C20.4452 13.5083 20.4242 13.4523 20.3971 13.3823C20.4067 13.3421 20.4242 13.2747 20.4583 13.1723C20.5721 12.8433 20.7488 12.5966 20.8258 12.4977C20.8731 12.4653 20.9168 12.4373 20.9588 12.4093C21.1225 12.3043 21.3246 12.1731 21.5328 11.9473C22.1165 11.3296 22.3816 10.7337 22.4481 9.88497C22.5006 9.12722 22.078 8.61797 21.798 8.28022C21.7175 8.18484 21.5932 8.03522 21.5757 8.01597C21.6133 7.86809 21.679 7.80422 22.0447 7.56184C22.2442 7.42972 22.4525 7.28884 22.6511 7.11472C22.8768 6.91959 23.0938 6.79622 23.3441 6.65359C23.7361 6.43047 24.1797 6.17759 24.6041 5.66659ZM4.1177 38.3653C3.12195 36.037 2.4552 33.5345 2.17083 30.9182C2.3852 30.5157 2.64508 30.1255 2.99858 29.695C3.25145 29.3931 3.52008 29.2102 3.82983 28.9993C4.20695 28.7421 4.63483 28.4498 5.03995 27.9432C5.52645 27.3508 5.6857 26.7191 5.81433 26.2107C5.95258 25.6656 6.03133 25.3943 6.32008 25.194C6.72258 24.9192 7.04108 24.8895 7.61858 24.8352C7.82595 24.8168 8.04558 24.795 8.28795 24.7608L8.60995 24.7136C9.7457 24.5465 10.4711 24.4712 11.4152 24.7372C12.0557 24.9166 12.4503 25.2158 12.95 25.5938C13.279 25.8432 13.6517 26.125 14.1277 26.3971C14.497 26.608 14.8093 26.8407 15.1112 27.0656C15.7858 27.567 16.4832 28.085 17.6426 28.2547C18.3076 28.3466 18.8676 28.141 19.292 27.9808C19.5046 27.8995 19.7058 27.8233 19.831 27.8233C19.8598 27.8233 19.8966 27.826 19.9561 27.8583C20.5292 28.1768 20.6569 28.4411 20.6806 28.6222C20.5581 28.6563 20.3805 28.687 20.2501 28.7106C19.635 28.8182 18.4905 29.0186 18.3583 30.1972C18.2918 30.766 18.487 31.1221 18.6646 31.3198C19.1231 31.837 19.978 31.7818 20.9413 31.5648C21.3561 31.4712 21.7857 31.3732 22.1296 31.3732C22.2862 31.3732 22.379 31.3942 22.4209 31.4091C22.6747 31.501 22.9486 31.5683 23.2155 31.6313C23.3327 31.6585 23.4893 31.6952 23.6241 31.732C23.5252 31.7503 23.4237 31.7687 23.338 31.7836C22.9346 31.8527 22.4787 31.9315 22.0613 32.1301C21.7323 32.2832 21.4515 32.4285 21.1881 32.5658C20.6508 32.8441 20.2256 33.0646 19.5781 33.2405C19.3803 33.293 19.0802 33.2483 18.7643 33.195C18.5141 33.1521 18.256 33.1083 17.983 33.1083C17.3372 33.1083 16.8288 33.3647 16.4753 33.8652C15.6668 34.9957 16.1463 36.1778 16.3773 36.7475C16.6915 37.5201 17.4317 38.4415 19.166 38.4415C19.9823 38.4415 20.9265 38.2428 22.1366 37.8176C22.9713 37.5218 23.4605 36.9872 23.8525 36.5567C24.1692 36.2085 24.4195 35.9337 24.8237 35.7535L25.2691 35.5505C26.1861 35.1278 26.8572 34.8268 27.5782 35.1663C27.7716 35.2573 27.8556 35.4306 28.0315 35.8646C28.2353 36.3703 28.5153 37.0633 29.295 37.4781C30.0046 37.8543 30.891 37.7178 31.5385 37.5323C31.927 37.4212 32.2384 37.3258 32.4642 37.458C32.7013 37.5988 32.7993 37.7896 32.9796 38.1728C33.1406 38.515 33.3401 38.9402 33.726 39.3445C33.8414 39.4661 33.95 39.5842 34.0541 39.698C34.6937 40.3988 35.2992 41.0603 36.4971 41.3438C36.6694 41.3841 36.8453 41.4042 37.0203 41.4042C37.6328 41.4042 38.1255 41.1601 38.521 40.9632C38.8605 40.7952 39.1221 40.6692 39.3356 40.7357C40.229 41.028 40.4145 41.2283 40.4985 41.5853C40.572 41.8715 40.2692 42.1121 39.1474 42.6537C38.9689 42.7403 38.7913 42.8261 38.6225 42.9136C38.0196 43.2242 37.5681 43.2627 36.8847 43.3213C36.6117 43.3441 36.3203 43.3695 36.0062 43.4123C35.3718 43.492 34.7987 43.6293 34.2439 43.7623C33.6043 43.9163 32.9997 44.0607 32.4738 44.0607C31.948 44.0607 31.528 43.9163 31.122 43.5978C30.7895 43.3318 30.6355 43.0492 30.4219 42.659C30.2671 42.3755 30.0921 42.0543 29.8156 41.6886C29.5715 41.3806 29.3615 40.9378 29.1584 40.5082C28.7104 39.5606 28.1531 38.3811 26.8852 38.3811C26.6691 38.3811 26.4442 38.4196 26.2167 38.4966C25.2315 38.8282 24.9033 39.6175 24.6636 40.1932C24.5603 40.4408 24.4632 40.6745 24.332 40.867C24.0038 41.3351 23.8384 41.8321 23.6915 42.2705C23.4456 43.0063 23.3686 43.093 23.1726 43.1218C22.8567 43.1673 22.6581 43.0335 22.1882 42.694C22.0482 42.5925 21.903 42.4866 21.749 42.3851C21.4462 42.1838 21.2677 41.9607 21.0411 41.6772C20.7882 41.3613 20.5012 41.0026 20.0313 40.6648C19.509 40.2798 19.0373 40.0952 18.6217 39.9316C18.2857 39.8003 17.9952 39.6866 17.675 39.474C17.5533 39.3926 17.4457 39.2561 17.3206 39.0968C17.0362 38.7363 16.6066 38.1912 15.7578 38.1606L15.6695 38.1588C15.0298 38.1588 14.1365 38.3863 13.5117 39.4687C13.2851 39.8607 13.1267 40.3901 12.957 40.9501C12.6822 41.8645 12.3051 43.1148 11.7145 43.1148H11.7136C11.1028 43.0737 9.3047 41.4996 8.4402 40.7427C7.8207 40.2002 7.2852 39.7321 6.89933 39.4766L6.60883 39.2762C5.9482 38.8168 5.26745 38.3435 4.36795 38.3435C4.2857 38.3435 4.2017 38.3566 4.1177 38.3653ZM28.2625 54.3035C18.214 54.3035 9.4867 48.6545 5.07583 40.3595C5.24383 40.4618 5.4197 40.58 5.60783 40.7103L5.92458 40.9282C6.21858 41.1233 6.73658 41.5757 7.2852 42.0561C9.1052 43.6486 10.479 44.7817 11.5981 44.8578C13.5756 44.9882 14.2108 42.8445 14.6308 41.4515C14.763 41.0113 14.9012 40.5563 15.0255 40.3393C15.2573 39.9386 15.4787 39.9053 15.701 39.9045C15.75 39.9307 15.8663 40.0795 15.9433 40.1775C16.1236 40.4067 16.3493 40.692 16.702 40.9273C17.1806 41.245 17.605 41.4112 17.9812 41.5582C18.3417 41.6991 18.6532 41.8216 18.998 42.0771C19.2823 42.2801 19.4626 42.5067 19.6726 42.7683C19.943 43.1052 20.2475 43.4858 20.7795 43.8411C20.9142 43.9303 21.0385 44.0205 21.1592 44.1071C21.7262 44.5201 22.3798 44.997 23.4167 44.8526C24.7336 44.6636 25.1037 43.5567 25.3487 42.8243C25.4686 42.4673 25.5814 42.1305 25.7696 41.8601C26.0076 41.5118 26.1511 41.168 26.2762 40.8652C26.5011 40.3262 26.5755 40.2203 26.7732 40.1538C26.8345 40.1328 26.8677 40.1267 26.8904 40.1302C27.0681 40.1862 27.3971 40.8818 27.5738 41.2555C27.8075 41.7498 28.0726 42.3098 28.4296 42.7596C28.616 43.0055 28.7454 43.2443 28.8846 43.4963C29.1348 43.9557 29.4192 44.4772 30.0326 44.969C30.7562 45.5351 31.5533 45.8107 32.4721 45.8107C33.2053 45.8107 33.908 45.6427 34.65 45.4642C35.1583 45.3417 35.6851 45.2157 36.232 45.1475C36.5225 45.1081 36.785 45.0862 37.0308 45.0643C37.7921 45.0005 38.5105 44.9383 39.424 44.4676C39.5797 44.3871 39.7425 44.3083 39.907 44.2296C40.9963 43.7028 42.6431 42.9075 42.1959 41.168C41.8564 39.7207 40.5693 39.299 39.8711 39.0715C39.6506 39.0015 39.424 38.9656 39.1973 38.9656C38.6085 38.9656 38.1272 39.2045 37.7405 39.397C37.4045 39.5641 37.1236 39.6927 36.8952 39.6411C36.225 39.4818 35.8933 39.1187 35.3447 38.5185C35.2336 38.396 35.1172 38.2708 34.993 38.1387C34.8022 37.9383 34.6911 37.7021 34.5625 37.4282C34.342 36.9592 34.0681 36.3756 33.3576 35.953C32.6436 35.5286 31.7213 35.6581 31.052 35.8515C30.6661 35.9626 30.3546 36.0606 30.1166 35.9328C29.9171 35.8278 29.827 35.6423 29.6537 35.211C29.4437 34.6903 29.1567 33.9772 28.3237 33.5843C27.8617 33.3673 27.4023 33.2615 26.9211 33.2615C26.0548 33.2615 25.3163 33.6027 24.5341 33.9641L24.1115 34.1575C23.3721 34.4865 22.9215 34.9817 22.5583 35.3798C22.2188 35.7526 21.9738 36.0212 21.5547 36.1691C20.552 36.5217 19.7706 36.6941 19.1668 36.6941C18.3548 36.6941 18.1212 36.3878 17.9996 36.0912C17.7038 35.3623 17.7318 35.1217 17.9838 34.8618C18.137 34.8618 18.3006 34.8942 18.4712 34.9231C18.9279 35.0001 19.5212 35.0666 20.0305 34.9345C20.8652 34.7087 21.4138 34.4235 21.9948 34.1216C22.2381 33.9947 22.4962 33.8608 22.806 33.7165C23.0116 33.6193 23.3292 33.5642 23.6346 33.5117C24.3145 33.3945 25.7311 33.1521 25.6278 31.6882C25.522 30.3792 24.3293 30.0992 23.6162 29.9312C23.4158 29.884 23.2102 29.8385 23.0133 29.7667C22.7648 29.6783 22.4936 29.6328 22.1873 29.6276C22.3151 29.4386 22.4035 29.2041 22.428 28.9101C22.5023 27.8391 21.9572 26.972 20.8048 26.3323C20.4986 26.1635 20.1713 26.0777 19.8327 26.0777C19.3847 26.0777 19.0058 26.2221 18.6716 26.3498C18.3706 26.4636 18.1081 26.5581 17.8937 26.5275C17.1762 26.4225 16.7483 26.1048 16.1577 25.6656C15.8305 25.4223 15.4586 25.1458 14.9983 24.8816C14.6195 24.6663 14.3237 24.4415 14.0096 24.2043C13.44 23.773 12.8511 23.3258 11.8921 23.0563C10.6715 22.7133 9.63195 22.7973 8.3562 22.9863L8.04208 23.0327C7.83383 23.0625 7.64133 23.08 7.45933 23.0966C6.79695 23.1587 6.1127 23.2226 5.33045 23.7563C4.48433 24.3443 4.28308 25.1432 4.12033 25.7855C4.01708 26.1941 3.92695 26.5467 3.68195 26.8468C3.43433 27.1566 3.17445 27.3333 2.84633 27.5573C2.5882 27.7332 2.30645 27.9292 2.0177 28.1996C2.01595 28.148 2.01245 28.1016 2.01245 28.0535C2.01245 15.268 11.1562 4.62184 23.2601 2.28559C23.3572 2.43609 23.457 2.58222 23.5523 2.71434C23.8568 3.13434 23.9321 3.26822 23.912 3.51497C23.8901 3.80459 23.7798 3.94372 23.4351 4.34097L23.2636 4.54222C23.0361 4.81522 22.8025 4.94909 22.4778 5.13372C22.1908 5.29822 21.8645 5.48372 21.5057 5.79347C21.3631 5.91772 21.217 6.01222 21.0787 6.10322C20.6613 6.37972 20.0891 6.75947 19.8791 7.59159C19.6656 8.45172 20.1582 9.04584 20.4531 9.40109C20.5476 9.51659 20.7077 9.70909 20.7042 9.76072C20.6692 10.207 20.5756 10.4196 20.2545 10.7582C20.1923 10.8265 20.1381 10.8623 20.013 10.9437C19.9141 11.0067 19.81 11.075 19.6945 11.1633L19.5886 11.2596C19.5361 11.3147 19.0758 11.8222 18.8028 12.6167C18.5955 13.2423 18.5867 13.5687 18.7643 14.015L18.8028 14.1182C18.8343 14.2241 18.8641 14.5968 18.8658 14.8375L18.7923 15.9032L19.5046 16.0808C19.9727 16.1972 20.2098 16.2943 20.6885 16.5306C20.9956 16.6785 21.1977 16.8193 21.4532 16.997L21.7105 17.1711C22.0534 17.3758 22.4017 17.34 22.7718 17.2988C22.9565 17.3172 23.1192 17.3295 23.2741 17.3426C23.611 17.3688 23.9085 17.3933 24.332 17.4546L24.6067 17.4887C24.8202 17.515 24.99 17.5333 25.2262 17.5963C25.361 17.634 25.4756 17.7215 25.6655 17.8702C25.9892 18.1257 26.4328 18.4748 27.1573 18.4748C27.7908 18.4705 28.2003 18.1922 28.4996 17.9883C28.6728 17.8711 28.777 17.8028 28.9065 17.767C29.211 17.6803 29.5592 17.6838 29.9136 17.7022C30.4246 17.7311 30.9417 17.7206 31.4212 17.6016C31.6443 17.5456 31.822 17.4686 31.9917 17.3898C32.1405 17.3216 32.1956 17.298 32.214 17.2945L32.277 17.2962L32.3224 17.291C32.3802 17.2953 32.4703 17.3338 32.5841 17.382C32.809 17.4782 33.1161 17.6112 33.5798 17.627C34.524 17.627 35.9869 16.4107 36.0045 16.3958C36.1672 16.2523 36.3028 16.1893 36.5286 16.0835C36.6878 16.0091 36.8549 15.9295 37.0851 15.7956C37.3266 15.6355 37.5191 15.4797 37.7011 15.3301C37.9583 15.1192 38.1272 14.9792 38.4186 14.8777C39.0285 14.6607 39.319 14.5802 39.697 14.708C39.9131 14.7832 40.0006 14.8436 40.2797 15.0702C40.4162 15.1805 40.4888 15.2855 40.6113 15.4596C40.7303 15.6302 40.8563 15.807 41.027 15.989C41.1031 16.0738 41.1661 16.1535 41.2256 16.2296C41.4163 16.4702 41.6535 16.7712 42.0979 17.0162C42.6518 17.3172 43.33 17.2735 43.8287 17.1728C44.0527 17.1273 44.2268 17.0853 44.4132 17.1142L44.7229 17.1562C44.9365 17.1833 45.0905 17.2035 45.2401 17.2525C45.3153 17.2752 45.3941 17.3067 45.4886 17.3575C45.8718 17.5613 46.0153 17.7433 46.3522 18.2473C46.6515 18.7041 46.7171 19.0401 46.837 19.6508L46.8991 19.9632C47.005 20.5013 47.0163 20.8671 47.0312 21.3728L47.0487 21.855C47.0583 22.0868 47.0767 22.2898 47.096 22.4815C47.1336 22.8647 47.1581 23.1185 47.0714 23.4772C47.0198 23.696 46.9157 23.8403 46.7197 24.0976C46.4975 24.389 46.221 24.7521 46.0722 25.2955L46.0285 25.4442C45.8701 25.9867 45.7196 26.4995 45.8885 27.2581C45.9278 27.427 45.92 27.9231 45.9138 28.2853C45.8972 29.2758 45.8876 29.9303 46.3023 30.3521C46.4922 30.5455 46.7442 30.6513 47.012 30.6513L47.2832 30.633L47.4617 30.5472C47.7111 30.4282 47.9272 30.2576 48.1215 30.0686C48.1285 30.0843 48.1346 30.0992 48.1407 30.115C48.3813 30.6522 48.8958 30.9611 49.5538 30.9611C50.2748 30.9611 51.7343 30.4501 51.8341 29.5042C51.8577 29.2548 51.8481 29.0291 51.8358 28.8165C51.8175 28.5093 51.8236 28.4498 51.8822 28.3562C51.9163 28.33 52.0633 28.2871 52.1604 28.26C52.4667 28.1716 52.8841 28.0526 53.2708 27.679C53.6095 27.343 53.7608 27.0052 53.8825 26.7348C53.9734 26.5318 54.026 26.4207 54.1327 26.3105C54.1957 26.244 54.2815 26.2002 54.4372 26.1258C54.481 26.7628 54.5125 27.4042 54.5125 28.0535C54.5125 42.5505 42.7595 54.3035 28.2625 54.3035Z" fill="#394240"/>
<path d="M39.3128 24.6952C38.3503 24.9726 38.0038 25.7076 37.7501 26.2448C37.6145 26.5336 37.4963 26.7821 37.3021 26.9614C36.9591 27.2817 36.6275 27.4584 36.2425 27.6632C35.8155 27.8907 35.3316 28.1479 34.8311 28.6152C34.6526 28.7806 34.4478 28.9232 34.2527 29.0623C33.6078 29.5199 32.6322 30.2121 32.9183 31.5158C33.1056 32.3339 33.7347 32.8222 34.6001 32.8222C35.1732 32.8222 35.7953 32.6218 36.3982 32.4276C36.6957 32.3322 36.9906 32.2351 37.2592 32.1756C38.7922 31.8404 39.8413 31.4388 40.9893 30.2856C41.1153 30.1604 41.2466 30.0353 41.3796 29.9076C42.3718 28.9626 43.8698 27.5337 42.756 25.8799C42.007 24.7556 40.6796 24.3023 39.3128 24.6952ZM40.1712 28.6406C40.0295 28.7762 39.8886 28.9109 39.7512 29.0474C38.8911 29.9119 38.171 30.1841 36.8838 30.4658C36.5645 30.5358 36.2127 30.6478 35.8601 30.7616C35.4208 30.9024 34.9247 31.0634 34.6228 31.0713C34.6412 30.9646 34.7803 30.8342 35.266 30.4894C35.5031 30.3206 35.7735 30.1289 36.0228 29.8962C36.3571 29.5856 36.6843 29.4106 37.0641 29.2084C37.4955 28.9783 37.9855 28.7184 38.4921 28.2442C38.9331 27.8382 39.1545 27.3692 39.3321 26.9921C39.5561 26.5187 39.6252 26.4268 39.7976 26.3769C39.9665 26.3279 40.131 26.3034 40.2867 26.3034C40.7163 26.3034 41.0576 26.4872 41.3017 26.8538C41.5275 27.1889 41.2737 27.5897 40.1712 28.6406Z" fill="#394240"/>
<path d="M28.6315 46.4993C28.4294 46.4993 28.2247 46.5308 28.0129 46.5956C26.7372 47.0068 26.7975 48.2878 26.829 48.9765C26.8413 49.2293 26.8518 49.4682 26.8282 49.6765C26.808 49.8663 26.7555 50.0483 26.7092 50.2233C26.5534 50.8113 26.3189 51.6986 27.0915 52.4598C27.4555 52.8098 27.9149 52.9953 28.4215 52.9953C29.1732 52.9953 30.0193 52.5605 30.6904 51.8281C31.7177 50.6845 31.7299 49.0132 30.728 47.7742C30.2608 47.1801 29.6019 46.4993 28.6315 46.4993ZM29.3928 50.6521C29.0375 51.0415 28.635 51.2453 28.4215 51.2453C28.369 51.2453 28.3428 51.2348 28.3008 51.199C28.2824 51.1185 28.355 50.8498 28.4014 50.6713C28.4635 50.4342 28.5353 50.1647 28.5668 49.8716C28.607 49.5295 28.5904 49.1926 28.5773 48.8942C28.5677 48.6903 28.5545 48.3946 28.5799 48.2546C28.7269 48.2283 28.8993 48.28 29.3587 48.8645C29.8303 49.4481 29.8425 50.1525 29.3928 50.6521Z" fill="#394240"/>
<path d="M39.3329 40.7349C39.1194 40.6684 38.8578 40.7935 38.5183 40.9623C38.1228 41.1592 37.6302 41.4034 37.0177 41.4034C36.8435 41.4034 36.6677 41.3832 36.4944 41.343C35.2965 41.0595 34.691 40.398 34.0514 39.6971C33.9473 39.5834 33.8388 39.4644 33.7233 39.3436C33.3383 38.9394 33.1379 38.5141 32.9769 38.172C32.7967 37.7887 32.6995 37.598 32.4615 37.4571C32.2358 37.325 31.9252 37.4204 31.5358 37.5315C30.8883 37.7179 30.001 37.8535 29.2923 37.4772C28.5118 37.0625 28.2327 36.3695 28.0288 35.8637C27.8538 35.4297 27.7689 35.2573 27.5755 35.1655C26.8554 34.826 26.1834 35.127 25.2664 35.5496L24.8228 35.7535C24.4185 35.9337 24.1683 36.2085 23.8515 36.5567C23.4595 36.9872 22.9704 37.5227 22.1357 37.8176C20.9255 38.2429 19.9814 38.4415 19.165 38.4415C17.4317 38.4415 16.6914 37.5201 16.3764 36.7475C16.1454 36.1779 15.6659 34.9957 16.4744 33.8652C16.827 33.3647 17.3354 33.1084 17.982 33.1084C18.255 33.1084 18.5123 33.1521 18.7634 33.195C19.0784 33.2484 19.3794 33.2921 19.5772 33.2405C20.2247 33.0655 20.6499 32.845 21.1872 32.5659C21.4505 32.4285 21.7314 32.2832 22.0604 32.1301C22.4778 31.9315 22.9337 31.8536 23.337 31.7836C23.4228 31.7687 23.5243 31.7512 23.6232 31.732C23.4893 31.6952 23.3318 31.6585 23.2145 31.6314C22.9468 31.5684 22.6738 31.5019 22.42 31.4091C22.378 31.3942 22.2853 31.3732 22.1287 31.3732C21.7839 31.3732 21.3543 31.4704 20.9404 31.5649C19.977 31.7819 19.123 31.837 18.6637 31.3199C18.4869 31.1212 18.2909 30.766 18.3574 30.1972C18.4895 29.0177 19.634 28.8182 20.2492 28.7106C20.3795 28.6879 20.558 28.6564 20.6797 28.6222C20.656 28.4411 20.5283 28.1769 19.9552 27.8584C19.8965 27.826 19.8598 27.8234 19.83 27.8234C19.704 27.8234 19.5037 27.8995 19.291 27.9809C18.8675 28.1419 18.3067 28.3475 17.6417 28.2547C16.4832 28.085 15.7858 27.567 15.1103 27.0656C14.8084 26.8407 14.496 26.6089 14.1268 26.3971C13.6508 26.125 13.278 25.8432 12.949 25.5939C12.4494 25.215 12.0557 24.9166 11.4143 24.7372C10.4702 24.4704 9.7448 24.5456 8.60905 24.7136L8.28705 24.7609C8.04555 24.795 7.82592 24.816 7.61767 24.8352C7.04017 24.8895 6.72167 24.9192 6.31917 25.194C6.03042 25.3944 5.95167 25.6656 5.81342 26.2107C5.68567 26.7191 5.52555 27.3517 5.03905 27.9432C4.63392 28.4499 4.20605 28.7421 3.82892 28.9994C3.51917 29.2102 3.25055 29.3931 2.99767 29.695C2.64417 30.1255 2.3843 30.5157 2.16992 30.9182C2.45342 33.5345 3.12105 36.037 4.1168 38.3654C4.2008 38.3566 4.28392 38.3435 4.36705 38.3435C5.26567 38.3435 5.9473 38.8169 6.60617 39.2736L6.89667 39.474C7.28167 39.7295 7.81805 40.1976 8.43755 40.7401C9.30205 41.497 11.1002 43.0711 11.7109 43.1122H11.7118C12.3024 43.1122 12.6787 41.8619 12.9543 40.9475C13.1232 40.3866 13.2824 39.8581 13.509 39.4661C14.1338 38.3837 15.0263 38.1562 15.6668 38.1562L15.7552 38.158C16.6039 38.1886 17.0335 38.7337 17.3179 39.0942C17.4439 39.2535 17.5515 39.39 17.6723 39.4714C17.9925 39.684 18.283 39.7977 18.619 39.929C19.0355 40.0926 19.5072 40.2764 20.0287 40.6622C20.4985 41 20.7855 41.3587 21.0384 41.6746C21.265 41.9572 21.4435 42.1804 21.7463 42.3825C21.9003 42.4831 22.0455 42.589 22.1855 42.6914C22.6554 43.0317 22.854 43.1647 23.1699 43.1192C23.3659 43.0912 23.4429 43.0037 23.6888 42.2679C23.8358 41.8295 24.0012 41.3334 24.3293 40.8643C24.4605 40.6719 24.5577 40.4391 24.6609 40.1906C24.9007 39.6149 25.2288 38.8247 26.214 38.494C26.4415 38.417 26.6664 38.3785 26.8825 38.3785C28.1495 38.3785 28.7078 39.558 29.1558 40.5056C29.3588 40.9344 29.5688 41.378 29.8129 41.686C30.0894 42.0517 30.2653 42.3729 30.4193 42.6564C30.6328 43.0466 30.7868 43.3301 31.1193 43.5952C31.5253 43.9137 31.9444 44.0581 32.4712 44.0581C32.9979 44.0581 33.6017 43.9137 34.2413 43.7597C34.796 43.6267 35.3692 43.4885 36.0035 43.4097C36.3177 43.3668 36.6082 43.3424 36.882 43.3187C37.5654 43.261 38.0169 43.2225 38.6198 42.911C38.7878 42.8235 38.9663 42.7377 39.1448 42.6511C40.2665 42.1095 40.5693 41.8689 40.4958 41.5827C40.4127 41.2284 40.2263 41.0271 39.3329 40.7349Z" fill="#F9EBB2"/>
<path d="M54.1054 23.472C52.6284 15.0886 47.1798 8.07547 39.7642 4.45472C39.4089 4.60784 39.0012 4.68397 38.5147 4.61484C37.651 4.50547 37.2958 3.87022 37.1112 3.33734C36.5844 3.14922 36.0498 2.98122 35.509 2.82634C35.3568 2.93134 35.18 3.02672 34.9525 3.08184C34.1825 3.26384 33.5709 3.08709 33.0529 2.86397C32.5647 2.66359 32.2637 2.36522 32.0344 2.07909C30.8024 1.89972 29.5442 1.80347 28.2623 1.80347C27.2184 1.80347 26.1912 1.87084 25.1797 1.98984C25.4579 2.40722 25.7152 2.92084 25.6574 3.64972C25.5909 4.52647 25.149 5.03659 24.7588 5.48722L24.6048 5.66659C24.1804 6.17759 23.7368 6.43047 23.3457 6.65359C23.0954 6.79622 22.8784 6.92047 22.6527 7.11472C22.4532 7.28797 22.2449 7.42884 22.0463 7.56184C21.6805 7.80334 21.6149 7.86809 21.5773 8.01597C21.5948 8.03522 21.7182 8.18484 21.8004 8.28459C22.0804 8.62234 22.503 9.13159 22.4505 9.88934C22.384 10.739 22.1189 11.334 21.5353 11.9517C21.327 12.1783 21.124 12.3087 20.9613 12.4137C20.9184 12.4408 20.8747 12.4688 20.8283 12.5021C20.7513 12.6001 20.5745 12.8477 20.4608 13.1767C20.4267 13.2791 20.4083 13.3465 20.3995 13.3867C20.4267 13.4567 20.4477 13.5127 20.4678 13.5766C20.5614 13.8566 20.5964 14.2731 20.6087 14.5855C20.8878 14.6861 21.1424 14.8033 21.4565 14.9573C21.8809 15.163 22.1705 15.3642 22.4514 15.5593L22.461 15.5655C22.4987 15.5637 22.5328 15.562 22.5617 15.5602L22.6019 15.5445L22.8487 15.5488C23.0613 15.569 23.2433 15.5838 23.4157 15.5978C23.7875 15.6276 24.1157 15.6547 24.575 15.7221L24.8174 15.7518C25.0834 15.7842 25.3345 15.814 25.6872 15.9093C26.1763 16.045 26.5079 16.3066 26.7494 16.4973C26.9935 16.6898 27.0574 16.7266 27.1449 16.7266C27.2324 16.7257 27.2875 16.6986 27.5177 16.5428C27.7312 16.3976 28.0243 16.199 28.4294 16.0852C28.922 15.9452 29.461 15.9286 30.0097 15.9575C30.3527 15.9758 30.6939 15.9811 30.9967 15.9058C31.0999 15.8805 31.1822 15.8385 31.2627 15.8017C31.4674 15.7081 31.7474 15.5786 32.1447 15.5488C32.1893 15.5445 32.2488 15.541 32.3083 15.541L32.4982 15.5523C32.8088 15.5768 33.0792 15.6923 33.2769 15.7781C33.43 15.8437 33.514 15.8778 33.5989 15.8813C33.7888 15.8323 34.6078 15.2986 34.8502 15.0868C35.1975 14.778 35.5117 14.631 35.7882 14.5023C35.9054 14.4472 36.0288 14.3903 36.1679 14.3098C36.3088 14.2153 36.454 14.0946 36.5914 13.9808C36.9047 13.7236 37.2599 13.4313 37.8409 13.2301C38.5497 12.979 39.3713 12.7585 40.2647 13.0542C40.7669 13.2301 41.0338 13.4296 41.3838 13.714C41.7119 13.9791 41.8983 14.246 42.0488 14.4612C42.1249 14.5706 42.2037 14.687 42.3192 14.8103C42.4338 14.9372 42.5204 15.0466 42.6027 15.1507C42.7575 15.3467 42.817 15.4185 42.9422 15.4867C43.0682 15.5558 43.2265 15.5138 43.4768 15.464C43.7865 15.401 44.2057 15.3196 44.672 15.3878L44.945 15.4246C45.2093 15.4587 45.4823 15.4928 45.7807 15.5926C45.9653 15.6495 46.1464 15.7265 46.3205 15.8227C47.0582 16.2147 47.3907 16.6566 47.8115 17.2857C48.3033 18.0356 48.4197 18.6297 48.5553 19.3183L48.6157 19.6237C48.7495 20.3097 48.7644 20.7796 48.781 21.3238L48.7977 21.7867C48.8055 21.9845 48.8222 22.1551 48.8388 22.3161C48.8834 22.7728 48.9289 23.2453 48.774 23.8867C48.6358 24.4747 48.3453 24.8553 48.1117 25.1616C47.9419 25.3856 47.8185 25.5466 47.7564 25.7723L47.7083 25.9386C47.57 26.4128 47.5289 26.5765 47.5937 26.8705C47.6628 27.1627 47.6724 27.5521 47.668 27.9765C47.8833 27.7673 48.2184 27.5118 48.6629 27.5118C48.8965 27.5118 49.3375 27.5888 49.6718 28.099C49.9194 28.4918 49.9115 28.8742 49.8617 29.1507C49.9474 29.1227 50.0288 29.0886 50.097 29.0553C50.0953 29.009 50.0918 28.9643 50.0892 28.9215C50.0682 28.5382 50.0375 28.0141 50.391 27.4453C50.762 26.8433 51.3142 26.6858 51.6799 26.5808C51.8672 26.5266 51.9862 26.4907 52.0474 26.4312C52.1428 26.3367 52.1953 26.2256 52.2872 26.02C52.4053 25.7575 52.5523 25.4311 52.8717 25.1012C53.1525 24.8055 53.457 24.6585 53.6802 24.5508C53.8753 24.4572 53.9155 24.431 53.947 24.3828C53.9427 24.3688 53.9383 24.3155 53.94 24.263C53.9418 24.0713 53.9619 23.7738 54.1054 23.472Z" fill="#F9EBB2"/>
<path d="M40.2867 26.3034C40.1309 26.3034 39.9664 26.3279 39.7976 26.3769C39.6252 26.4268 39.5561 26.5187 39.3321 26.992C39.1544 27.3692 38.9331 27.8382 38.4921 28.2442C37.9854 28.7184 37.4954 28.9783 37.0641 29.2084C36.6834 29.4105 36.3562 29.5855 36.0228 29.8962C35.7734 30.1289 35.5031 30.3197 35.2659 30.4894C34.7794 30.835 34.6403 30.9645 34.6228 31.0713C34.9247 31.0634 35.4208 30.9033 35.8601 30.7615C36.2127 30.6478 36.5644 30.5358 36.8838 30.4658C38.1718 30.184 38.8911 29.9119 39.7512 29.0474C39.8886 28.9109 40.0294 28.7762 40.1712 28.6405C41.2737 27.5897 41.5274 27.1889 41.3017 26.8538C41.0576 26.4872 40.7163 26.3034 40.2867 26.3034Z" fill="#F9EBB2"/>
<path d="M28.5802 48.2545C28.5548 48.3945 28.5679 48.6903 28.5775 48.8941C28.5915 49.1925 28.6073 49.5303 28.567 49.8715C28.5355 50.1646 28.4638 50.4341 28.4017 50.6713C28.3544 50.8489 28.2827 51.1184 28.301 51.1989C28.343 51.2348 28.3693 51.2453 28.4218 51.2453C28.6353 51.2453 29.0378 51.0423 29.393 50.652C29.8428 50.1524 29.8305 49.448 29.3589 48.8644C28.9004 48.2799 28.7272 48.2283 28.5802 48.2545Z" fill="#F9EBB2"/>
</g>
<defs>
<clipPath id="clip0_1599_1813">
<rect width="56" height="56" fill="white" transform="translate(0.262451 0.0534668)"/>
</clipPath>
</defs>
</svg>
