<svg width="57" height="57" viewBox="0 0 57 57" fill="none" xmlns="http://www.w3.org/2000/svg">
<g clip-path="url(#clip0_1599_1954)">
<path d="M52.9648 19.757C52.9648 25.7523 48.0871 30.63 42.0918 30.63C39.3163 30.63 36.7802 29.5846 34.8577 27.866C32.6261 25.8737 31.2189 22.9768 31.2189 19.757C31.2189 13.7607 36.0966 8.88287 42.0918 8.88287C44.936 8.88287 47.5295 9.98089 49.468 11.7763C51.6172 13.7629 52.9648 16.606 52.9648 19.757Z" fill="#36CD90"/>
<path d="M52.9647 19.757C52.9647 25.7523 48.087 30.63 42.0917 30.63C39.3162 30.63 36.78 29.5846 34.8575 27.866L49.4679 11.7764C51.6171 13.7628 52.9647 16.6059 52.9647 19.757Z" fill="#00A653"/>
<path d="M31.9563 15.138C31.9563 20.2803 29.2083 24.7916 25.1046 27.2831C22.96 28.5861 20.4456 29.3361 17.7583 29.3361C9.92865 29.3361 3.56018 22.9664 3.56018 15.138C3.56018 10.0897 6.20859 5.647 10.1897 3.12919C12.3825 1.74374 14.9782 0.939941 17.7583 0.939941C25.5867 0.939941 31.9563 7.30961 31.9563 15.138Z" fill="#36CD90"/>
<path d="M31.9562 15.138C31.9562 20.2803 29.2081 24.7916 25.1045 27.2831L10.1896 3.12919C12.3823 1.74374 14.978 0.939941 17.7581 0.939941C25.5865 0.939941 31.9562 7.30961 31.9562 15.138Z" fill="#00A653"/>
<path d="M30.8811 53.5049H34.9721V56.94H23.3561V53.5049H27.446V34.2322L14.6471 13.5843L17.5669 11.7752L29.5036 31.0308L40.0388 19.5257L41.3453 20.7223H41.3464L42.5727 21.8455L30.8811 34.6112V53.5049Z" fill="#A17852"/>
<path d="M30.8811 53.5049H34.9722V56.9399H29.2795L29.2583 34.0757L41.3453 20.7222H41.3464L42.5727 21.8454L30.8811 34.6111V53.5049Z" fill="#735538"/>
</g>
<defs>
<clipPath id="clip0_1599_1954">
<rect width="56" height="56" fill="white" transform="translate(0.262451 0.939941)"/>
</clipPath>
</defs>
</svg>
