<svg width="32" height="33" viewBox="0 0 32 33" fill="none" xmlns="http://www.w3.org/2000/svg">
<path d="M22.96 3.16669H11.9467C11.4134 3.16669 10.9067 3.35336 10.4934 3.67336L7.57336 6.00669C6.40003 6.94003 6.40003 8.71333 7.57336 9.64667L10.4934 11.98C10.9067 12.3133 11.4267 12.4867 11.9467 12.4867H22.96C24.2533 12.4867 25.2933 11.4467 25.2933 10.1533V5.48667C25.2933 4.20667 24.2533 3.16669 22.96 3.16669Z" stroke="#00AA55" stroke-width="1.5" stroke-linecap="round" stroke-linejoin="round"/>
<path d="M9.06673 16.5H20.0801C20.6134 16.5 21.1201 16.6867 21.5334 17.0067L24.4535 19.34C25.6268 20.2733 25.6268 22.0466 24.4535 22.98L21.5334 25.3133C21.1201 25.6466 20.6001 25.82 20.0801 25.82H9.06673C7.7734 25.82 6.7334 24.78 6.7334 23.4867V18.82C6.7334 17.54 7.7734 16.5 9.06673 16.5Z" stroke="#00AA55" stroke-width="1.5" stroke-linecap="round" stroke-linejoin="round"/>
<path d="M16 16.5V12.5" stroke="#00AA55" stroke-width="1.5" stroke-linecap="round" stroke-linejoin="round"/>
<path d="M16 29.8333V25.8333" stroke="#00AA55" stroke-width="1.5" stroke-linecap="round" stroke-linejoin="round"/>
<path d="M12 29.8333H20" stroke="#00AA55" stroke-width="1.5" stroke-linecap="round" stroke-linejoin="round"/>
</svg>
